HIERARCHY
ROOT Hips
{
  OFFSET 5.84602e-005 68.8428 3.50346
  CHANNELS 6 Xposition Yposition Zposition Zrotation Xrotation Yrotation
  JOINT Spine
  {
    OFFSET 0 8.597 -4.6522
    CHANNELS 3 Zrotation Xrotation Yrotation
    JOINT Spine1
    {
      OFFSET 0 7.8454 0.4098
      CHANNELS 3 Zrotation Xrotation Yrotation
      JOINT Spine2
      {
        OFFSET 0 9.7078 -2.1609
        CHANNELS 3 Zrotation Xrotation Yrotation
        JOINT Neck
        {
          OFFSET 0 21.8761 -0.4549
          CHANNELS 3 Zrotation Xrotation Yrotation
          JOINT Head
          {
            OFFSET 0 12.3537 3.3602
            CHANNELS 3 Zrotation Xrotation Yrotation
            End Site
            {
              OFFSET 0.0001 18.9506 0.5657
            }
          }
        }
        JOINT LeftShoulder
        {
          OFFSET 2.2086 21.1115 7.2329
          CHANNELS 3 Zrotation Xrotation Yrotation
          JOINT LeftArm
          {
            OFFSET 13.1193 3.0282 -4.8998
            CHANNELS 3 Zrotation Xrotation Yrotation
            JOINT LeftForeArm
            {
              OFFSET 27.4081 -0.0973053 -0.2375
              CHANNELS 3 Zrotation Xrotation Yrotation
              JOINT LeftHand
              {
                OFFSET 22.8641 0.0662994 -0.1369
                CHANNELS 3 Zrotation Xrotation Yrotation
                JOINT LeftHandIndex1
                {
                  OFFSET 8.8614 0.775009 2.4612
                  CHANNELS 3 Zrotation Xrotation Yrotation
                  JOINT LeftHandIndex2
                  {
                    OFFSET 3.3146 -0.808304 0.5841
                    CHANNELS 3 Zrotation Xrotation Yrotation
                    JOINT LeftHandIndex3
                    {
                      OFFSET 2.2628 -0.552002 0.3989
                      CHANNELS 3 Zrotation Xrotation Yrotation
                      End Site
                      {
                        OFFSET 1.6102 -0.4807 0.2612
                      }
                    }
                  }
                }
                JOINT LeftHandMiddle1
                {
                  OFFSET 8.9937 0.895004 0.2143
                  CHANNELS 3 Zrotation Xrotation Yrotation
                  JOINT LeftHandMiddle2
                  {
                    OFFSET 4.0984 0.0113983 -0.0242
                    CHANNELS 3 Zrotation Xrotation Yrotation
                    JOINT LeftHandMiddle3
                    {
                      OFFSET 2.2716 0.00689697 -0.0138001
                      CHANNELS 3 Zrotation Xrotation Yrotation
                      End Site
                      {
                        OFFSET 2.0404 -0.1441 0.0027
                      }
                    }
                  }
                }
                JOINT LeftHandRing1
                {
                  OFFSET 8.5234 0.597198 -2.0164
                  CHANNELS 3 Zrotation Xrotation Yrotation
                  JOINT LeftHandRing2
                  {
                    OFFSET 3.7188 -0.188293 -0.2328
                    CHANNELS 3 Zrotation Xrotation Yrotation
                    JOINT LeftHandRing3
                    {
                      OFFSET 2.1191 -0.106598 -0.1332
                      CHANNELS 3 Zrotation Xrotation Yrotation
                      End Site
                      {
                        OFFSET 1.8737 -0.2304 -0.0886
                      }
                    }
                  }
                }
                JOINT LeftHandPinky1
                {
                  OFFSET 7.9094 -0.601089 -3.4825
                  CHANNELS 3 Zrotation Xrotation Yrotation
                  JOINT LeftHandPinky2
                  {
                    OFFSET 2.2874 -0.477005 -0.6314
                    CHANNELS 3 Zrotation Xrotation Yrotation
                    JOINT LeftHandPinky3
                    {
                      OFFSET 1.6774 -0.349396 -0.4633
                      CHANNELS 3 Zrotation Xrotation Yrotation
                      End Site
                      {
                        OFFSET 1.4888 -0.4091 -0.3416
                      }
                    }
                  }
                }
                JOINT LeftHandThumb1
                {
                  OFFSET 1.833 -1.3875 1.3896
                  CHANNELS 3 Zrotation Xrotation Yrotation
                  JOINT LeftHandThumb2
                  {
                    OFFSET 3.4129 -1.121 2.5732
                    CHANNELS 3 Zrotation Xrotation Yrotation
                    JOINT LeftHandThumb3
                    {
                      OFFSET 2.2474 -0.804199 1.6192
                      CHANNELS 3 Zrotation Xrotation Yrotation
                      End Site
                      {
                        OFFSET 1.6527 -0.5689 1.1317
                      }
                    }
                  }
                }
              }
            }
          }
        }
        JOINT RightShoulder
        {
          OFFSET -2.2086 21.1115 7.2329
          CHANNELS 3 Zrotation Xrotation Yrotation
          JOINT RightArm
          {
            OFFSET -13.1216 3.0287 -4.9007
            CHANNELS 3 Zrotation Xrotation Yrotation
            JOINT RightForeArm
            {
              OFFSET -27.4081 -0.0973053 -0.2375
              CHANNELS 3 Zrotation Xrotation Yrotation
              JOINT RightHand
              {
                OFFSET -22.8641 0.0664063 -0.1369
                CHANNELS 3 Zrotation Xrotation Yrotation
                JOINT RightHandIndex1
                {
                  OFFSET -8.8614 0.774994 2.4612
                  CHANNELS 3 Zrotation Xrotation Yrotation
                  JOINT RightHandIndex2
                  {
                    OFFSET -3.3146 -0.808304 0.5841
                    CHANNELS 3 Zrotation Xrotation Yrotation
                    JOINT RightHandIndex3
                    {
                      OFFSET -2.2628 -0.552002 0.3989
                      CHANNELS 3 Zrotation Xrotation Yrotation
                      End Site
                      {
                        OFFSET -1.6102 -0.4807 0.2612
                      }
                    }
                  }
                }
                JOINT RightHandMiddle1
                {
                  OFFSET -8.9937 0.894989 0.2143
                  CHANNELS 3 Zrotation Xrotation Yrotation
                  JOINT RightHandMiddle2
                  {
                    OFFSET -4.0984 0.0113983 -0.0242
                    CHANNELS 3 Zrotation Xrotation Yrotation
                    JOINT RightHandMiddle3
                    {
                      OFFSET -2.2716 0.00691223 -0.0138001
                      CHANNELS 3 Zrotation Xrotation Yrotation
                      End Site
                      {
                        OFFSET -2.0404 -0.1441 0.0027
                      }
                    }
                  }
                }
                JOINT RightHandRing1
                {
                  OFFSET -8.5234 0.597198 -2.0164
                  CHANNELS 3 Zrotation Xrotation Yrotation
                  JOINT RightHandRing2
                  {
                    OFFSET -3.7188 -0.188309 -0.2328
                    CHANNELS 3 Zrotation Xrotation Yrotation
                    JOINT RightHandRing3
                    {
                      OFFSET -2.1191 -0.106598 -0.1332
                      CHANNELS 3 Zrotation Xrotation Yrotation
                      End Site
                      {
                        OFFSET -1.8737 -0.2304 -0.0886
                      }
                    }
                  }
                }
                JOINT RightHandPinky1
                {
                  OFFSET -7.9094 -0.601105 -3.4825
                  CHANNELS 3 Zrotation Xrotation Yrotation
                  JOINT RightHandPinky2
                  {
                    OFFSET -2.2874 -0.477005 -0.6314
                    CHANNELS 3 Zrotation Xrotation Yrotation
                    JOINT RightHandPinky3
                    {
                      OFFSET -1.6774 -0.349396 -0.4633
                      CHANNELS 3 Zrotation Xrotation Yrotation
                      End Site
                      {
                        OFFSET -1.4888 -0.4091 -0.3416
                      }
                    }
                  }
                }
                JOINT RightHandThumb1
                {
                  OFFSET -1.833 -1.38751 1.3896
                  CHANNELS 3 Zrotation Xrotation Yrotation
                  JOINT RightHandThumb2
                  {
                    OFFSET -3.41299 -1.12099 2.5732
                    CHANNELS 3 Zrotation Xrotation Yrotation
                    JOINT RightHandThumb3
                    {
                      OFFSET -2.24741 -0.804108 1.6192
                      CHANNELS 3 Zrotation Xrotation Yrotation
                      End Site
                      {
                        OFFSET -1.6527 -0.5689 1.1317
                      }
                    }
                  }
                }
              }
            }
          }
        }
      }
    }
  }
  JOINT RightUpLeg
  {
    OFFSET -9.1966 3.8861 -0.7581
    CHANNELS 3 Zrotation Xrotation Yrotation
    JOINT RightLeg
    {
      OFFSET -0.7359 -41.0265 0
      CHANNELS 3 Zrotation Xrotation Yrotation
      JOINT RightFoot
      {
        OFFSET 0 -40.2855 0
        CHANNELS 3 Zrotation Xrotation Yrotation
        JOINT RightToeBase
        {
          OFFSET 0 -5.6122 11.7359
          CHANNELS 3 Zrotation Xrotation Yrotation
          End Site
          {
            OFFSET 0 0 7.8731
          }
        }
      }
    }
  }
  JOINT LeftUpLeg
  {
    OFFSET 9.1965 3.8864 -0.7581
    CHANNELS 3 Zrotation Xrotation Yrotation
    JOINT LeftLeg
    {
      OFFSET 0.7359 -41.0268 0
      CHANNELS 3 Zrotation Xrotation Yrotation
      JOINT LeftFoot
      {
        OFFSET 0 -40.2855 0
        CHANNELS 3 Zrotation Xrotation Yrotation
        JOINT LeftToeBase
        {
          OFFSET 0 -5.6122 11.7359
          CHANNELS 3 Zrotation Xrotation Yrotation
          End Site
          {
            OFFSET 0 0 7.8731
          }
        }
      }
    }
  }
}
MOTION
Frames:	7
Frame Time:	0.0333333
5.84602e-005 68.8428 3.50346 0 0 -0 0 0 -0 0 0 -0 0 0 -0 0 0 -0 0 0 -0 0 0 -0 0 0 -0 0 0 -0 0 0 -0 0 0 -0 0 0 -0 0 0 -0 0 0 -0 -0.0146107 -8.87603e-005 -2.63497e-007 2.99804e-018 -2.42657e-020 -1.42182e-022 0 0 -0 -0.0187562 -0.001176 5.858e-005 5.06224e-018 3.88251e-019 1.21329e-020 0 0 -0 -0.012269 -0.00324817 0.000675346 -1.74678e-018 3.88251e-019 -0 0 0 -0 0 0 -0 0 0 -0 0 0 -0 0 0 -0 0 0 -0 0 0 -0 0 0 -0 0 0 -0 0 0 -0 0 0 -0 0.0149955 -9.10982e-005 2.64101e-007 -9.69331e-018 1.21329e-020 -4.7394e-023 0 0 -0 0.0189956 -0.00119102 -5.96516e-005 -5.41541e-019 0 2.42657e-020 0 0 -0 0.0122698 -0.00324857 -0.000673756 -2.00796e-019 0 -1.94126e-019 0 0 -0 0 0 -0 0 0 -0 3.39842 1.33031 -0.0637918 -5.65207e-008 0.834868 -0.000436188 -3.39935 -2.16518 -0.0642563 -8.89002e-024 -1.18485e-023 -1.48106e-024 -3.39844 1.35642 0.0640283 -3.18788e-007 0.782166 -0.000588827 3.39931 -2.13858 0.0634662 1.1399e-023 0 -0 
0.162194 19.4602 -0.0248464 -2.89582 14.2507 -168.388 -0.649215 19.2368 0.0355447 -1.4471 38.4717 0.35158 -1.4471 38.4717 0.35158 -7.16547e-005 -0.313138 2.06033e-005 0.478326 -0.832966 0.0622256 -12.3237 -19.641 -19.371 -24.3718 20.4433 -77.7932 12.201 -14.0158 0.115637 47.4419 7.5967 -13.7577 2.80775e-006 1.5821e-006 -1.65985e-007 -4.73131e-006 -1.84603e-006 -2.9385e-007 4.53354e-006 2.197e-006 4.33537e-007 2.80775e-006 1.5821e-006 -1.65985e-007 -0.0146063 -9.29864e-005 7.6942e-006 2.80761e-006 1.58212e-006 -1.65786e-007 2.80775e-006 1.5821e-006 -1.65985e-007 -0.0187613 -0.00117897 5.82443e-005 4.53591e-006 2.19707e-006 4.33843e-007 2.80775e-006 1.5821e-006 -1.65985e-007 -0.0122439 -0.00324252 0.000674446 2.80764e-006 1.58207e-006 -1.65889e-007 2.80775e-006 1.5821e-006 -1.65985e-007 -4.73131e-006 -1.84603e-006 -2.9385e-007 4.53354e-006 2.197e-006 4.33537e-007 10.6924 -19.7645 16.9504 24.4977 20.7999 78.8256 -12.0237 -13.9443 -0.115956 -41.7892 6.63807 12.1393 5.30225e-007 6.03933e-007 -2.81812e-007 1.06045e-006 1.20787e-006 -5.63624e-007 -6.36111e-015 3.97569e-015 -0 5.30225e-007 6.03933e-007 -2.81812e-007 0.0150039 -8.75409e-005 1.51782e-006 3.18055e-015 -5.56597e-015 -4.77083e-015 5.30225e-007 6.03933e-007 -2.81812e-007 0.0189764 -0.00118504 -5.24419e-005 -3.18055e-015 0 -0 5.30225e-007 6.03933e-007 -2.81812e-007 0.0122898 -0.00325174 -0.00067327 -6.36111e-015 7.95139e-016 1.59028e-015 5.30225e-007 6.03933e-007 -2.81812e-007 1.06045e-006 1.20787e-006 -5.63624e-007 -6.36111e-015 3.97569e-015 -0 -86.701 -44.9524 -98.2129 -167.222 66.5018 166.157 -0.576125 -19.1481 -0.369054 -5.64286e-007 1.43962e-007 3.30829e-006 86.7275 -45.0629 98.1631 167.276 66.5096 -166.21 0.494721 -19.1357 0.410871 -1.59028e-015 -2.22639e-014 -0 
0.996802 21.3322 -0.155518 -8.56553e-015 12.4475 -180 -0.603615 17.3158 0.0255121 -1.31318 34.6302 0.273448 -1.31318 34.6302 0.273448 -6.50423e-006 -0.293778 1.78347e-006 0.928662 -1.6302 0.282347 -11.1165 -16.9472 -17.738 -24.0923 22.8136 -74.0735 11.4855 -13.155 0.117757 43.8154 7.4898 -12.4052 -1.18462e-007 1.62983e-007 7.03273e-008 1.18462e-007 -1.62983e-007 -7.03273e-008 -2.36923e-007 3.25966e-007 1.40655e-007 -1.18462e-007 1.62983e-007 7.03273e-008 -0.014622 -8.96917e-005 2.56884e-006 -2.36922e-007 3.25948e-007 1.40696e-007 -1.18462e-007 1.62983e-007 7.03273e-008 -0.0187589 -0.00117746 6.32988e-005 -2.3692e-007 3.25943e-007 1.4071e-007 -1.18462e-007 1.62983e-007 7.03273e-008 -0.0122249 -0.00323597 0.000672856 -2.36917e-007 3.25952e-007 1.40696e-007 -1.18462e-007 1.62983e-007 7.03273e-008 1.18462e-007 -1.62983e-007 -7.03273e-008 -2.36923e-007 3.25966e-007 1.40655e-007 9.79689 -17.0246 15.7048 24.1976 23.3061 75.1594 -11.318 -13.0943 -0.118038 -38.4556 6.65511 11.0301 -1.04381e-006 1.3534e-006 -3.06411e-006 1.61356e-006 2.0385e-006 -2.45792e-006 9.51895e-007 1.29168e-006 -5.71484e-007 -1.04381e-006 1.3534e-006 -3.06411e-006 0.0149584 -8.62473e-005 3.27644e-006 -1.04583e-006 1.35301e-006 -3.06428e-006 -1.04381e-006 1.3534e-006 -3.06411e-006 0.0189907 -0.00119022 -5.90251e-005 9.51868e-007 1.29158e-006 -5.71708e-007 -1.04381e-006 1.3534e-006 -3.06411e-006 0.0122858 -0.00324967 -0.000677567 -1.04556e-006 1.35351e-006 -3.06413e-006 -1.04381e-006 1.3534e-006 -3.06411e-006 1.61356e-006 2.0385e-006 -2.45792e-006 9.51895e-007 1.29168e-006 -5.71484e-007 -82.7431 -48.0671 -96.0034 -164.837 71.8748 164.207 -1.03075 -17.7636 -0.442359 -1.09057e-006 4.94859e-007 -1.41059e-008 82.7554 -48.1585 95.9436 164.897 71.8819 -164.264 0.960483 -17.7527 0.478179 -5.40489e-007 6.45486e-006 -1.45079e-005 
0.99679 20.3667 -0.0166003 -8.41642e-015 11.2814 -180 -0.595766 16.5674 0.00878203 -1.28068 33.1339 0.221699 -1.28068 33.1339 0.221699 -6.68587e-007 -0.292875 6.03747e-007 1.38563 -2.43082 0.501343 -11.0371 -15.3781 -17.3922 -24.0923 22.8136 -74.0735 11.4855 -13.155 0.117769 43.1187 7.78214 -11.8999 -2.371e-007 3.2594e-007 1.40433e-007 2.8471e-006 1.66767e-006 1.54245e-006 -3.5565e-007 4.88911e-007 2.1065e-007 -2.371e-007 3.2594e-007 1.40433e-007 -0.0146166 -8.76448e-005 -1.18736e-005 -3.55648e-007 4.88884e-007 2.10713e-007 -2.371e-007 3.2594e-007 1.40433e-007 -0.0187181 -0.00117029 5.4585e-005 -3.55646e-007 4.88876e-007 2.10734e-007 -2.371e-007 3.2594e-007 1.40433e-007 -0.012264 -0.00324201 0.000666969 1.53488e-006 7.6015e-007 2.59247e-006 -2.371e-007 3.2594e-007 1.40433e-007 2.8471e-006 1.66767e-006 1.54245e-006 -3.5565e-007 4.88911e-007 2.1065e-007 9.87067 -15.446 15.5719 24.1976 23.3061 75.1594 -11.318 -13.0943 -0.118021 -37.6994 7.01984 10.6594 -2.87899e-006 1.3523e-006 -1.53891e-006 4.4878e-006 6.75749e-007 -9.07153e-007 1.42952e-006 1.93633e-006 -8.57881e-007 -2.87899e-006 1.3523e-006 -1.53891e-006 0.0150184 -8.98304e-005 3.79878e-006 -1.44802e-006 3.2883e-006 -2.39723e-006 -2.87899e-006 1.3523e-006 -1.53891e-006 0.018974 -0.00118744 -6.38958e-005 -1.44766e-006 3.28811e-006 -2.39733e-006 -2.87899e-006 1.3523e-006 -1.53891e-006 0.0122647 -0.00324529 -0.000674404 1.42946e-006 1.93625e-006 -8.58128e-007 -2.87899e-006 1.3523e-006 -1.53891e-006 4.4878e-006 6.75749e-007 -9.07153e-007 1.42952e-006 1.93633e-006 -8.57881e-007 -86.0729 -48.2233 -99.6728 -165.47 70.91 164.74 -1.36367 -17.3921 -0.687054 0 1.59028e-015 -0 86.0901 -48.3075 99.6245 165.521 70.9164 -164.79 1.29985 -17.3823 0.719671 -1.88332e-006 -1.96155e-007 5.52268e-008 
0.996782 19.4034 0.124435 -8.26841e-015 10.1145 -180 -0.588252 15.817 -0.00769419 -1.25054 31.6334 0.171926 -1.25054 31.6333 0.171925 -1.58739e-005 -0.291216 5.00269e-006 1.84767 -3.23261 0.72772 -10.968 -13.8063 -17.0507 -24.0923 22.8136 -74.0735 11.4855 -13.1549 0.117749 42.4186 8.06846 -11.3905 -1.53954e-006 -3.3649e-006 -6.88572e-007 2.96325e-006 1.40941e-006 -1.52613e-007 -1.53954e-006 -3.3649e-006 -6.88571e-007 -1.53954e-006 -3.3649e-006 -6.88572e-007 -0.0146172 -8.7624e-005 -3.70775e-006 -1.5394e-006 -3.36481e-006 -6.89e-007 -1.53954e-006 -3.3649e-006 -6.88572e-007 -0.0187404 -0.00117285 5.58943e-005 3.38887e-007 -3.08791e-006 1.70181e-006 -1.53954e-006 -3.3649e-006 -6.88572e-007 -0.0122736 -0.00324423 0.000670872 -1.53946e-006 -3.36479e-006 -6.88895e-007 -1.53954e-006 -3.3649e-006 -6.88572e-007 2.96325e-006 1.40941e-006 -1.52613e-007 -1.53954e-006 -3.3649e-006 -6.88571e-007 9.9478 -13.8654 15.4377 24.1976 23.3061 75.1594 -11.3181 -13.0943 -0.11804 -36.94 7.37981 10.2835 -1.14862e-006 3.84355e-006 -1.09017e-006 9.62222e-007 -6.86047e-006 -2.20905e-006 -1.14862e-006 3.84355e-006 -1.09017e-006 -1.14862e-006 3.84355e-006 -1.09017e-006 0.0150216 -9.72411e-005 -8.5731e-007 -3.13529e-006 3.94207e-006 -3.61926e-006 -1.14862e-006 3.84355e-006 -1.09017e-006 0.0190344 -0.00119851 -6.80114e-005 -1.14847e-006 3.84336e-006 -1.0908e-006 -1.14862e-006 3.84355e-006 -1.09017e-006 0.0122877 -0.00325818 -0.000677196 -1.14857e-006 3.8434e-006 -1.09055e-006 -1.14862e-006 3.84355e-006 -1.09017e-006 9.62222e-007 -6.86047e-006 -2.20905e-006 -1.14862e-006 3.84355e-006 -1.09017e-006 -89.4277 -48.2405 -103.37 -166.045 69.9419 165.214 -1.69398 -17.0206 -0.929795 5.1425e-007 -3.64736e-008 -3.23881e-006 89.4488 -48.3171 103.332 166.089 69.9474 -165.257 1.63672 -17.012 0.959157 -2.16161e-006 1.40509e-007 -3.11434e-006 
0.996775 18.4424 0.267477 -8.12139e-015 8.94696 -180 -0.58106 15.0651 -0.0239218 -1.22261 30.1297 0.123989 -1.22261 30.1297 0.123989 -1.34586e-005 -0.290256 3.35721e-006 2.31496 -4.03538 0.961609 -10.9088 -12.2325 -16.7128 -24.0923 22.8136 -74.0735 11.4855 -13.155 0.117763 41.7153 8.34865 -10.877 5.41909e-006 8.79601e-007 1.89517e-006 -1.04771e-006 1.56249e-006 2.2391e-006 4.74953e-007 -6.5178e-007 -2.79902e-007 5.41909e-006 8.79601e-007 1.89517e-006 -0.014602 -8.75314e-005 3.2428e-006 4.74951e-007 -6.51744e-007 -2.79985e-007 5.41909e-006 8.79601e-007 1.89517e-006 -0.018736 -0.00117372 5.98422e-005 4.74947e-007 -6.51735e-007 -2.80013e-007 5.41909e-006 8.79601e-007 1.89517e-006 -0.012253 -0.0032465 0.000676752 -1.38884e-006 -9.35271e-007 -2.6801e-006 5.41909e-006 8.79601e-007 1.89517e-006 -1.04771e-006 1.56249e-006 2.2391e-006 4.74953e-007 -6.5178e-007 -2.79902e-007 10.0283 -12.2833 15.3021 24.1976 23.3061 75.1594 -11.3181 -13.0943 -0.118056 -36.1773 7.73493 9.90238 2.45669e-006 5.27021e-007 2.26243e-006 2.88999e-006 -1.34056e-006 1.50046e-006 4.77826e-007 6.44521e-007 -2.86346e-007 2.45669e-006 5.27021e-007 2.26243e-006 0.0149831 -9.71304e-005 -5.74137e-006 4.77819e-007 6.44484e-007 -2.8643e-007 2.45669e-006 5.27021e-007 2.26243e-006 0.0189914 -0.00119155 -6.20858e-005 -1.50361e-006 7.61711e-007 -2.83522e-006 2.45669e-006 5.27021e-007 2.26243e-006 0.0122739 -0.00325112 -0.000670939 -1.50277e-006 7.62146e-007 -2.83507e-006 2.45669e-006 5.27021e-007 2.26243e-006 2.88999e-006 -1.34056e-006 1.50046e-006 4.77826e-007 6.44521e-007 -2.86346e-007 -92.7821 -48.1172 -107.07 -166.571 68.9706 165.638 -2.02177 -16.6491 -1.17063 -2.07751e-006 -1.6895e-006 2.92704e-007 92.8058 -48.1859 107.041 166.607 68.9753 -165.674 1.97103 -16.6416 1.19673 -2.65529e-006 1.23267e-006 -2.96017e-006 
0.996771 17.4837 0.412412 -7.97526e-015 7.77899 -180 -0.57419 14.3122 -0.0398995 -1.19679 28.624 0.0777616 -1.19679 28.624 0.0777611 -5.36858e-007 -0.28958 -3.16538e-006 2.78765 -4.83893 1.20315 -10.8594 -10.6573 -16.3783 -24.0923 22.8136 -74.0735 11.4855 -13.155 0.11775 41.0088 8.62263 -10.3597 -4.75343e-007 6.51728e-007 2.79394e-007 -1.12894e-006 1.54786e-006 6.63561e-007 -1.78254e-007 2.44398e-007 1.04773e-007 -4.75343e-007 6.51728e-007 2.79394e-007 -0.0146189 -8.88194e-005 -7.33702e-006 -1.78253e-007 2.44385e-007 1.04804e-007 -4.75343e-007 6.51728e-007 2.79394e-007 -0.0187708 -0.00117637 6.08539e-005 -1.78252e-007 2.44381e-007 1.04815e-007 -4.75343e-007 6.51728e-007 2.79394e-007 -0.0123022 -0.00325251 0.000679597 -3.17111e-006 -1.26326e-006 -1.34006e-006 -4.75343e-007 6.51728e-007 2.79394e-007 -1.12894e-006 1.54786e-006 6.63561e-007 -1.78254e-007 2.44398e-007 1.04773e-007 10.1122 -10.7003 15.1648 24.1976 23.3061 75.1594 -11.3181 -13.0943 -0.118042 -35.4114 8.08503 9.51608 4.7858e-007 6.43994e-007 -2.86522e-007 1.91432e-006 2.57597e-006 -1.14609e-006 -3.18055e-015 -3.18055e-015 -3.18055e-015 4.7858e-007 6.43994e-007 -2.86522e-007 0.014985 -8.4192e-005 -8.95454e-007 6.36111e-015 -6.36111e-015 9.54166e-015 4.7858e-007 6.43994e-007 -2.86522e-007 0.019033 -0.00119351 -6.50618e-005 6.36111e-015 -4.77083e-015 -3.18055e-015 4.7858e-007 6.43994e-007 -2.86522e-007 0.0122479 -0.00323723 -0.000669257 -1.97458e-006 1.35868e-007 -2.5702e-006 4.7858e-007 6.43994e-007 -2.86522e-007 1.91432e-006 2.57597e-006 -1.14609e-006 -3.18055e-015 -3.18055e-015 -3.18055e-015 -96.1106 -47.854 -110.746 -167.053 67.9964 166.016 -2.34699 -16.2778 -1.40963 -7.92134e-007 -2.9924e-007 6.9705e-008 96.1357 -47.9145 110.726 167.083 68.0003 -166.047 2.3028 -16.2714 1.43242 2.60126e-007 -5.85402e-007 1.56093e-006 
